<svg width="150" height="99.99999999999999" xmlns="http://www.w3.org/2000/svg" xmlns:xlink="http://www.w3.org/1999/xlink" version="1.1">
 <!-- <title>@反馈/异常/服务或系统异常</title> -->
 <defs>
  <rect id="path-2" x="3.5" y="9" width="51.42857" height="88" rx="4.57143"/>
  <circle id="path-4" cx="18.82286" cy="18.82286" r="18.82286"/>
  <linearGradient x1="50%" y1="-116.862036%" x2="50%" y2="90.7636478%" id="svg_50">
   <stop stop-color="#666" stop-opacity="0.20667" offset="0%"/>
   <stop stop-color="#ccc" stop-opacity="0.11474" offset="80.0721014%"/>
   <stop stop-color="#999" stop-opacity="0" offset="100%"/>
  </linearGradient>
  <linearGradient id="svg_68" x1="0" y1="0" x2="1" y2="0">
   <stop stop-color="#FFFFFF" offset="0"/>
   <stop stop-color="#cccccc" stop-opacity="0.99609" offset="1"/>
  </linearGradient>
  <linearGradient id="svg_140" x1="0.85938" y1="0.72891" x2="1" y2="1" spreadMethod="pad">
   <stop stop-color="#eee" offset="0.48828"/>
   <stop stop-color="#cccccc" stop-opacity="0.99609" offset="1"/>
   <stop stop-color="0" stop-opacity="0" offset="NaN"/>
   <stop stop-color="0" stop-opacity="0" offset="NaN"/>
   <stop stop-color="0" stop-opacity="0" offset="NaN"/>
   <stop stop-color="0" stop-opacity="0" offset="NaN"/>
   <stop stop-color="0" stop-opacity="0" offset="NaN"/>
   <stop stop-color="0" stop-opacity="0" offset="NaN"/>
   <stop stop-color="0" stop-opacity="0" offset="NaN"/>
   <stop stop-color="0" stop-opacity="0" offset="NaN"/>
   <stop stop-color="0" stop-opacity="0" offset="NaN"/>
   <stop stop-color="0" stop-opacity="0" offset="NaN"/>
   <stop stop-color="0" stop-opacity="0" offset="NaN"/>
   <stop stop-color="0" stop-opacity="0" offset="NaN"/>
   <stop stop-color="0" stop-opacity="0" offset="NaN"/>
   <stop stop-color="0" stop-opacity="0" offset="NaN"/>
  </linearGradient>
 </defs>
 <g>
  <title>Layer 1</title>
  <defs transform="translate(0 -1) translate(0 -1) translate(0 1) translate(0 1) translate(1 0) translate(1 0) translate(-8 -6) translate(8 0) translate(18 -17) translate(0 200) scale(0.82 0.815) translate(0 -200) translate(21.9512 24.5399) scale(0.914634 0.889571) translate(-21.9512 -24.5399) translate(34.6667 27.5862) scale(1.05333 1.09655) translate(-34.6667 -27.5862)" stroke="null">
   <rect rx="4.57143" height="88" width="51.42857" y="9" x="3.5" id="svg_14" stroke="null"/>
   <circle r="18.82286" cy="18.82286" cx="18.82286" id="svg_8" stroke="null"/>
   <rect id="svg_19" x="3.5" y="9" width="51.42857" height="88" rx="4.57143"/>
   <circle id="svg_11" cx="18.82286" cy="18.82286" r="18.82286"/>
  </defs>
  <mask id="svg_17" fill="white">
   <!-- <use xlink:href="#svg_19" xlink:href="#svg_19" id="svg_1"/> -->
  </mask>
  <defs>
   <rect id="svg_25" x="3.5" y="9" width="51.42857" height="88" rx="4.57143"/>
   <circle id="svg_15" cx="18.82286" cy="18.82286" r="18.82286"/>
  </defs>
  <defs transform="translate(30 -29) translate(0 200) scale(0.81 0.805) translate(0 -200)" stroke="null">
   <rect stroke="null" rx="4.57143" height="88" width="51.42857" y="9" x="3.5" id="svg_48"/>
   <circle stroke="null" r="18.82286" cy="18.82286" cx="18.82286" id="svg_42"/>
  </defs>
  <defs stroke="null" transform="translate(6 8) translate(7.08957 -10.4478) translate(13.0896 197.552) scale(1 0.418607) translate(-13.0896 -197.552)">
   <rect stroke="null" id="svg_46" x="3.5" y="9" width="51.42857" height="88" rx="4.57143"/>
   <circle stroke="null" id="svg_39" cx="18.82286" cy="18.82286" r="18.82286"/>
  </defs>
  <!-- <mask stroke="null" id="svg_44" fill="white">
   <use stroke="null" id="svg_3" xlink:href="#svg_46" xlink:href="#svg_46"/>
  </mask> -->
  <defs transform="translate(15.8416 4.95049) translate(28.2178 -13.3663) translate(6.43563 2.97029) translate(1.42109e-14 0) translate(0 1.42109e-14) translate(6.43563 202.97) scale(0.658416 0.752476) translate(-6.43563 -202.97) translate(52.6314 251.974) scale(0.609024 0.388159) translate(-52.6314 -251.974)" stroke="null">
   <rect rx="4.57143" height="88" width="51.42857" y="9" x="3.5" id="svg_55" stroke="null"/>
   <circle r="18.82286" cy="18.82286" cx="18.82286" id="svg_49" stroke="null"/>
  </defs>
  <mask fill="white" id="svg_53" stroke="null">
   <use href="#svg_55" xlink:href="#svg_55" id="svg_4" stroke="null"/>
  </mask>
  <mask fill="white" id="svg_47" stroke="null">
   <use href="#svg_49" xlink:href="#svg_49" id="svg_5" stroke="null"/>
  </mask>
  <defs transform="translate(-74.9998 9.93149) translate(-46.5752 -4.10958) translate(-35.2739 -68.8355) translate(-9.93149 52.7396) translate(34 -5) translate(1.42109e-14 0) translate(0 1.42109e-14) translate(224.069 247.74) scale(0.792809 0.804795) translate(-224.069 -247.74) translate(238.134 222.298) scale(0.552917 0.489363) translate(-238.134 -222.298) translate(324.437 443.825) scale(0.449222 0.304352) translate(-324.437 -443.825)" stroke="null">
   <rect rx="4.57143" height="88" width="51.42857" y="9" x="3.5" id="svg_30" stroke="null"/>
   <circle r="18.82286" cy="18.82286" cx="18.82286" id="svg_23" stroke="null"/>
  </defs>
  <defs stroke="null" transform="translate(12 17) translate(1.42109e-14 0) translate(0 1.42109e-14) translate(0 0) scale(0.845 0.75) translate(0 0)">
   <rect stroke="null" id="svg_31" x="3.5" y="9" width="51.42857" height="88" rx="4.57143"/>
   <circle stroke="null" id="svg_22" cx="18.82286" cy="18.82286" r="18.82286"/>
  </defs>
  <defs transform="translate(1.42109e-14 0) translate(0 1.42109e-14)">
   <rect id="svg_33" x="3.5" y="9" width="51.42857" height="88" rx="4.57143"/>
   <circle id="svg_24" cx="18.82286" cy="18.82286" r="18.82286"/>
  </defs>
  <defs transform="translate(1.42109e-14 0) translate(0 1.42109e-14)">
   <rect id="svg_35" x="3.5" y="9" width="51.42857" height="88" rx="4.57143"/>
   <circle id="svg_26" cx="18.82286" cy="18.82286" r="18.82286"/>
  </defs>
  <defs transform="translate(1.42109e-14 0) translate(0 1.42109e-14)">
   <rect id="svg_37" x="3.5" y="9" width="51.42857" height="88" rx="4.57143"/>
   <circle id="svg_27" cx="18.82286" cy="18.82286" r="18.82286"/>
  </defs>
  <defs transform="translate(1.42109e-14 0) translate(0 1.42109e-14)">
   <rect rx="4.57143" height="88" width="51.42857" y="9" x="3.5" id="svg_40"/>
   <circle r="18.82286" cy="18.82286" cx="18.82286" id="svg_28"/>
  </defs>
  <!-- Created with Method Draw - http://github.com/duopixel/Method-Draw/ -->
  <defs transform="translate(-7.27272 -80.4544) translate(-0.90909 -3.63636) translate(-21.8182 0.454545) translate(-2.27272 -4.99999) translate(0.454545 -8.18181) translate(0 -1.36363) translate(15.9091 17.2727) translate(3.63636 2.72727) translate(21.3636 24.5454) translate(0 25)">
   <rect rx="4.57143" height="88" width="51.42857" y="9" x="3.5" id="svg_95"/>
   <circle r="18.82286" cy="18.82286" cx="18.82286" id="svg_85"/>
  </defs>
  <defs stroke="null" transform="translate(-0.526315 0) translate(0 -16) translate(-1 0) translate(-19 -26) translate(1.42109e-14 0) translate(0 1.42109e-14) translate(200 200) scale(0.785 0.735) translate(-200 -200)">
   <rect stroke="null" id="svg_43" x="3.5" y="9" width="51.42857" height="88" rx="4.57143"/>
   <circle stroke="null" id="svg_29" cx="18.82286" cy="18.82286" r="18.82286"/>
  </defs>
  <mask stroke="null" id="svg_38" fill="white">
   <use stroke="null" id="svg_56" xlink:href="#svg_43" href="#svg_43"/>
  </mask>
  <mask stroke="null" id="svg_18" fill="white">
   <use stroke="null" id="svg_57" xlink:href="#svg_29" href="#svg_29"/>
  </mask>
  <defs transform="translate(3.97351 -36.755) translate(-47.0199 -72.5166) translate(-60.596 -87.4172) translate(-75.4967 -106.291) translate(-55.6291 -27.8146) translate(-7.61589 -14.9007) translate(123.179 -46.6887) translate(-30.4636 33.1126) translate(-30.4636 233.113) scale(0.768212 0.868733) translate(30.4636 -233.113) translate(-39.6552 268.336) scale(1 0.628056) translate(39.6552 -268.336) translate(321.365 390.777) scale(0.735962 0.693807) translate(-321.365 -390.777) translate(400.312 604.617) scale(0.615472 0.519842) translate(-400.312 -604.617) translate(580.267 969.421) scale(0.632478 0.44214) translate(-580.267 -969.421) translate(863.98 2098.31) scale(0.62698 0.562887) translate(-863.98 -2098.31) translate(395.944 3514.46) scale(0.872876 0.77563) translate(-395.944 -3514.46)" stroke="null">
   <rect id="svg_99" x="3.5" y="9" width="51.42857" height="88" rx="4.57143" stroke="null"/>
   <circle id="svg_92" cx="18.82286" cy="18.82286" r="18.82286" stroke="null"/>
  </defs>
  <mask id="svg_97" fill="white" stroke="null">
   <use id="svg_9" xlink:href="#svg_99" href="#svg_99" stroke="null"/>
  </mask>
  <defs transform="translate(-0.578035 -65.3179) translate(0.867052 -22.8324) translate(-11.2717 -74.5665) translate(-9.53757 -64.1618) translate(-59.8266 -65.6069) translate(-75.7225 -86.7052) translate(-0.289017 64.7399) translate(0 32.3699) translate(-7.22543 30.9249) translate(28.3237 8.3815) translate(-62.1387 47.6879) translate(102.312 -18.2081) translate(260.983 365.896) scale(0.644509 0.768207) translate(-260.983 -365.896) translate(331.227 364.04) scale(0.527257 0.711423) translate(-331.227 -364.04) translate(208.372 464.781) scale(1 0.635293) translate(-208.372 -464.781) translate(180.305 695.962) scale(1 0.579871) translate(-180.305 -695.962) translate(149.688 1012.75) scale(1 0.68481) translate(-149.688 -1012.75) translate(147.987 157.988) scale(1 0.490142) translate(-147.987 -157.988)" stroke="null">
   <rect id="svg_117" x="3.5" y="9" width="51.42857" height="88" rx="4.57143" stroke="null"/>
   <circle id="svg_111" cx="18.82286" cy="18.82286" r="18.82286" stroke="null"/>
  </defs>
  <mask id="svg_115" fill="white" stroke="null">
   <use id="svg_32" xlink:href="#svg_117" href="#svg_117" stroke="null"/>
  </mask>
  <g id="svg_126">
   <path d="m6200.22544,-1618.47075c0.24401,0.11366 0.34158,0.40208 0.21793,0.6442c-0.12365,0.24213 -0.4217,0.34626 -0.66571,0.2326c-0.24401,-0.11366 -0.34158,-0.40208 -0.21793,-0.6442c0.12365,-0.24212 0.4217,-0.34626 0.66571,-0.2326zm-2.01272,-0.93753c0.24401,0.11366 0.34157,0.40208 0.21792,0.6442c-0.12365,0.24213 -0.42169,0.34626 -0.6657,0.2326c-0.24402,-0.11366 -0.34158,-0.40208 -0.21793,-0.6442c0.12365,-0.24212 0.42169,-0.34626 0.66571,-0.2326zm2.31403,-0.8424c0.24401,0.11366 0.34158,0.40208 0.21793,0.6442c-0.12365,0.24212 -0.4217,0.34626 -0.66571,0.2326c-0.24401,-0.11366 -0.34157,-0.40208 -0.21792,-0.6442c0.12365,-0.24213 0.42169,-0.34626 0.6657,-0.2326zm-2.0873,-1.00566c0.24401,0.11366 0.34157,0.40207 0.21792,0.6442c-0.12365,0.24212 -0.42169,0.34626 -0.6657,0.2326c-0.24401,-0.11366 -0.34158,-0.40208 -0.21793,-0.6442c0.12365,-0.24213 0.4217,-0.34626 0.66571,-0.2326zm3.89382,1.37124c0.24401,0.11366 0.34158,0.40208 0.21793,0.6442c-0.12365,0.24212 -0.4217,0.34626 -0.66571,0.2326c-0.24401,-0.11366 -0.34158,-0.40208 -0.21793,-0.6442c0.12365,-0.24213 0.4217,-0.34626 0.66571,-0.2326zm2.40539,0.16864c0.24401,0.11366 0.34158,0.40208 0.21793,0.6442c-0.12365,0.24213 -0.4217,0.34626 -0.66571,0.2326c-0.24401,-0.11366 -0.34158,-0.40208 -0.21793,-0.6442c0.12365,-0.24212 0.4217,-0.34626 0.66571,-0.2326zm-4.17133,-2.70664c0.14641,0.0682 0.20495,0.24125 0.13076,0.38652c-0.07419,0.14527 -0.25302,0.20776 -0.39943,0.13956c-0.14641,-0.0682 -0.20495,-0.24125 -0.13076,-0.38652c0.07419,-0.14527 0.25302,-0.20776 0.39943,-0.13956zm2.74761,0.61578l0.06286,0.03516c0.19706,0.13055 0.26748,0.38893 0.15507,0.60904c-0.12365,0.24212 -0.4217,0.34625 -0.66571,0.23259c-0.24401,-0.11366 -0.34158,-0.40208 -0.21793,-0.64419c0.12365,-0.24213 0.4217,-0.34626 0.66571,-0.2326l0,0zm4.02544,1.87505c0.24401,0.11366 0.34158,0.40208 0.21793,0.6442c-0.12365,0.24212 -0.4217,0.34625 -0.66571,0.23259c-0.24401,-0.11366 -0.34157,-0.40207 -0.21793,-0.64419c0.12365,-0.24213 0.42169,-0.34626 0.6657,-0.2326l0.00001,0zm-8.05089,-3.75011c0.24401,0.11366 0.34158,0.40208 0.21793,0.6442c-0.12365,0.24212 -0.4217,0.34625 -0.66571,0.23259c-0.24401,-0.11366 -0.34157,-0.40207 -0.21793,-0.64419c0.12365,-0.24213 0.42169,-0.34626 0.6657,-0.2326l0.00001,0zm-2.38011,-0.90828c0.14641,0.0682 0.20495,0.24124 0.13076,0.38652c-0.07419,0.14527 -0.25302,0.20775 -0.39942,0.13955c-0.14641,-0.0682 -0.20495,-0.24124 -0.13076,-0.38652c0.07419,-0.14528 0.25302,-0.20776 0.39943,-0.13956l-0.00001,0.00001zm8.61462,3.33642c0.24401,0.11366 0.34158,0.40208 0.21793,0.6442c-0.12365,0.24212 -0.4217,0.34626 -0.66571,0.2326c-0.24401,-0.11366 -0.34158,-0.40208 -0.21793,-0.6442c0.12365,-0.24213 0.4217,-0.34626 0.66571,-0.2326zm-3.55422,-1.32326c0.14641,0.0682 0.20495,0.24125 0.13076,0.38652c-0.07419,0.14527 -0.25302,0.20776 -0.39943,0.13956c-0.14641,-0.0682 -0.20495,-0.24125 -0.13076,-0.38652c0.07419,-0.14527 0.25302,-0.20776 0.39943,-0.13956zm7.97191,2.00106c0.24401,0.11366 0.34158,0.40208 0.21793,0.6442c-0.12365,0.24212 -0.4217,0.34626 -0.66571,0.2326c-0.24401,-0.11366 -0.34158,-0.40208 -0.21793,-0.6442c0.12365,-0.24213 0.4217,-0.34626 0.66571,-0.2326zm-1.61513,-0.85849c0.24401,0.11366 0.34157,0.40207 0.21792,0.6442c-0.12365,0.24212 -0.42169,0.34626 -0.6657,0.2326c-0.24402,-0.11366 -0.34158,-0.40208 -0.21793,-0.6442c0.12365,-0.24213 0.42169,-0.34626 0.66571,-0.2326zm-9.82676,-4.3185c0.1464,0.06819 0.20494,0.24125 0.13075,0.38652c-0.07419,0.14527 -0.25302,0.20776 -0.39942,0.13956c-0.14641,-0.0682 -0.20495,-0.24125 -0.13076,-0.38652c0.07419,-0.14527 0.25302,-0.20776 0.39943,-0.13956zm8.61462,3.33642c0.24401,0.11366 0.34158,0.40208 0.21793,0.6442c-0.12365,0.24213 -0.4217,0.34626 -0.66571,0.2326c-0.24401,-0.11366 -0.34158,-0.40208 -0.21793,-0.6442c0.12365,-0.24212 0.4217,-0.34626 0.66571,-0.2326zm-4.428,-2.06256c0.24401,0.11366 0.34158,0.40208 0.21793,0.6442c-0.12365,0.24213 -0.4217,0.34626 -0.66571,0.2326c-0.24401,-0.11366 -0.34157,-0.40207 -0.21792,-0.6442c0.12365,-0.24212 0.42169,-0.34626 0.6657,-0.2326zm2.41527,1.12504c0.24401,0.11366 0.34157,0.40208 0.21792,0.6442c-0.12365,0.24213 -0.42169,0.34626 -0.6657,0.2326c-0.24402,-0.11366 -0.34158,-0.40208 -0.21793,-0.6442c0.12365,-0.24212 0.42169,-0.34626 0.66571,-0.2326zm-4.39285,-1.84581c0.14641,0.0682 0.20495,0.24124 0.13076,0.38652c-0.07419,0.14527 -0.25302,0.20776 -0.39943,0.13956c-0.14641,-0.0682 -0.20495,-0.24125 -0.13076,-0.38652c0.07419,-0.14527 0.25302,-0.20775 0.39942,-0.13955l0.00001,-0.00001zm8.80108,1.99559c0.24401,0.11366 0.34158,0.40208 0.21793,0.6442c-0.12365,0.24212 -0.4217,0.34626 -0.66571,0.2326c-0.24401,-0.11366 -0.34157,-0.40208 -0.21792,-0.6442c0.12365,-0.24213 0.42169,-0.34626 0.6657,-0.2326zm-2.67225,-0.84121c0.14641,0.0682 0.20495,0.24125 0.13076,0.38652c-0.07419,0.14527 -0.25302,0.20775 -0.39942,0.13955c-0.14641,-0.0682 -0.20495,-0.24124 -0.13076,-0.38652c0.07419,-0.14527 0.25302,-0.20776 0.39943,-0.13956l-0.00001,0.00001zm-1.5549,-1.18624c0.24401,0.11366 0.34158,0.40208 0.21793,0.6442c-0.12365,0.24213 -0.4217,0.34626 -0.66571,0.2326c-0.24401,-0.11366 -0.34158,-0.40208 -0.21793,-0.6442c0.12365,-0.24212 0.4217,-0.34626 0.66571,-0.2326zm-2.38463,-1.32783c0.14641,0.0682 0.20495,0.24125 0.13076,0.38652c-0.07419,0.14527 -0.25302,0.20776 -0.39943,0.13956c-0.1464,-0.06819 -0.20494,-0.24125 -0.13075,-0.38652c0.07419,-0.14527 0.25302,-0.20776 0.39942,-0.13956zm-2.01272,-0.93753c0.14641,0.0682 0.20495,0.24125 0.13076,0.38652c-0.07419,0.14527 -0.25302,0.20776 -0.39943,0.13956c-0.14641,-0.0682 -0.20495,-0.24125 -0.13076,-0.38652c0.07419,-0.14527 0.25302,-0.20776 0.39943,-0.13956zm-3.22036,-1.50005c0.14641,0.0682 0.20495,0.24125 0.13076,0.38652c-0.07419,0.14527 -0.25302,0.20776 -0.39943,0.13956c-0.14641,-0.0682 -0.20494,-0.24125 -0.13075,-0.38652c0.07419,-0.14527 0.25301,-0.20776 0.39942,-0.13956zm11.12595,3.65461c0.24401,0.11366 0.34158,0.40208 0.21793,0.64419c-0.12365,0.24213 -0.4217,0.34626 -0.66571,0.2326c-0.24401,-0.11366 -0.34158,-0.40208 -0.21793,-0.6442c0.12365,-0.24212 0.4217,-0.34625 0.66571,-0.23259zm-5.57048,-2.79897c0.14641,0.0682 0.20495,0.24124 0.13076,0.38652c-0.07419,0.14527 -0.25302,0.20775 -0.39942,0.13955c-0.14641,-0.0682 -0.20495,-0.24124 -0.13076,-0.38652c0.07419,-0.14528 0.25302,-0.20776 0.39943,-0.13956l-0.00001,0.00001zm4.88106,1.15034c0.14641,0.0682 0.20495,0.24125 0.13076,0.38652c-0.07419,0.14527 -0.25302,0.20776 -0.39943,0.13956c-0.14641,-0.0682 -0.20495,-0.24125 -0.13076,-0.38652c0.07419,-0.14527 0.25302,-0.20776 0.39943,-0.13956zm-7.92483,-4.09214c0.14641,0.0682 0.20495,0.24124 0.13076,0.38652c-0.07419,0.14527 -0.25302,0.20775 -0.39942,0.13955c-0.14641,-0.0682 -0.20495,-0.24124 -0.13076,-0.38652c0.07419,-0.14528 0.25302,-0.20776 0.39943,-0.13956l-0.00001,0.00001zm10.97317,4.30214c0.14641,0.0682 0.20495,0.24125 0.13076,0.38652c-0.07419,0.14527 -0.25302,0.20776 -0.39943,0.13956c-0.14641,-0.0682 -0.20495,-0.24125 -0.13076,-0.38652c0.07419,-0.14527 0.25302,-0.20776 0.39943,-0.13956zm-6.09212,-4.00727c0.14641,0.0682 0.20495,0.24124 0.13076,0.38652c-0.07419,0.14527 -0.25302,0.20775 -0.39942,0.13955c-0.1464,-0.06819 -0.20494,-0.24124 -0.13075,-0.38651c0.07419,-0.14528 0.25302,-0.20776 0.39942,-0.13956l-0.00001,0zm-4.66425,-2.5102c0.14641,0.0682 0.20495,0.24124 0.13076,0.38652c-0.07419,0.14527 -0.25302,0.20775 -0.39942,0.13955c-0.14641,-0.0682 -0.20495,-0.24124 -0.13076,-0.38652c0.07419,-0.14528 0.25302,-0.20776 0.39943,-0.13956l-0.00001,0.00001z" id="svg_34" fill="#ccc" fill-rule="nonzero" mask="url(#svg_38)" stroke="null"/>
   <path d="m-186.98254,-1172.88877l3.06667,3.73922m9.33563,-3.73922l-3.06667,3.73922m7.1672,0.85547l-4.92784,0.85547m-5.30478,-8.01655l0,5.43518" id="Combined-Shape" stroke-width="0.75" stroke-linecap="round" stroke-linejoin="round" stroke="#4486FE"/>
   <g id="svg_6" stroke="null">
    <rect id="svg_52" fill="#FFFFFF" opacity="0" x="17.2716" y="-3.32704" width="121.9869" height="110.63345" stroke="null"/>
    <g id="svg_45" fill="url(#svg_50)" stroke="null">
     <path d="m63.72845,9.29242c11.85375,-0.17216 23.60193,9.41246 31.42574,19.51927c5.31131,-5.9863 10.44598,-8.97909 15.40375,-8.97909c8.13244,0 17.29214,7.89581 27.4791,23.68744c1.07927,1.67307 -2.18451,4.11275 -9.79137,7.31902l0,0l-25.20373,0.75825c-4.47906,3.248 -19.04533,0.34601 -42.17811,0.68197c-16.95009,0.24618 -27.91022,-0.68255 -32.88035,-2.78617c-7.16846,-0.84895 -10.11105,-2.20797 -8.82776,-4.07704c16.40199,-23.88908 31.25956,-35.9303 44.57274,-36.12365l-0.00001,0.00001l-0.00001,-0.00001l0.00001,0zm56.78358,27.39828c-0.0434,0 -0.08656,0.00381 -0.12937,0.01126c-0.01159,0.00202 -0.02314,0.00429 -0.03475,0.00681c-0.01264,0.00277 -0.02526,0.00585 -0.03778,0.00928c-0.01423,0.00383 -0.02841,0.00807 -0.04264,0.01264l0,0l-0.03536,0.01234l-0.04303,0.01733l-0.0169,0.00734l0,0l-0.01196,0.00559c-0.01798,0.0084 -0.03591,0.0174 -0.05376,0.02683c-0.11847,0.06355 -0.23425,0.15305 -0.34638,0.26407c-0.01352,0.01333 -0.02699,0.02697 -0.04084,0.04093c-1.02827,1.06833 -1.7716,3.90648 -1.7716,4.96993c0,1.26305 1.04856,2.29752 2.37777,2.38659l0,0l0.01562,0.0005l0.00005,2.10498c0.00007,0.21532 0.15317,0.3898 0.34209,0.38971c0.18874,0 0.34175,-0.17452 0.34175,-0.38979l0,0l0.00026,-2.14689c1.17038,-0.22182 2.05125,-1.18747 2.05125,-2.34511c0,-1.32164 -1.14811,-5.38436 -2.56439,-5.38436l-0.00001,0.00001l-0.00001,0.00001l-0.00001,0zm-60.99344,-2.76584c-0.0434,0 -0.08656,0.00381 -0.12937,0.01126c-0.01159,0.00202 -0.02314,0.00429 -0.03475,0.00681c-0.01264,0.00277 -0.02526,0.00585 -0.03778,0.00928l-0.02132,0.00605l0,0l-0.02132,0.00661l-0.03536,0.01234l-0.04303,0.01733l-0.0169,0.00734l-0.01196,0.00559c-0.01798,0.0084 -0.03591,0.0174 -0.05376,0.02683c-0.11847,0.06355 -0.23425,0.15305 -0.34638,0.26407c-0.01352,0.01333 -0.02698,0.02697 -0.04084,0.04093c-1.02827,1.06833 -1.7716,3.90648 -1.7716,4.96993c0,1.22358 0.98405,2.23265 2.25399,2.3755l0.12376,0.01109l0.01562,0.0005l0.00005,2.10498c0.00007,0.21532 0.15317,0.3898 0.34209,0.38971c0.17159,0 0.31363,-0.14423 0.33804,-0.33219l0.0037,-0.05761l0.00026,-2.14689c1.17038,-0.22182 2.05125,-1.18747 2.05125,-2.34511c0,-1.32164 -1.14811,-5.38436 -2.56439,-5.38436l0.00001,0.00001l-0.00001,0zm-8.54797,-3.42205l-0.09161,0.00442l-0.09089,0.01306l-0.01954,0.00394l0,0l-0.01972,0.0044l-0.04767,0.01218l-0.02725,0.00805l0,0l-0.02722,0.00887l-0.03658,0.01293l-0.02325,0.00899l0,0l-0.02321,0.00952l-0.03557,0.01581l-0.01315,0.00598c-0.0428,0.02019 -0.08535,0.04307 -0.12746,0.06867c-0.01462,0.00881 -0.02921,0.01792 -0.04412,0.02729c-0.00858,0.00554 -0.01715,0.0112 -0.02535,0.01701l-0.0306,0.02102l0,0l-0.03074,0.02182l-0.01522,0.01134l-0.01494,0.01163c-0.0163,0.01247 -0.03252,0.0253 -0.04898,0.03831c-0.0471,0.03836 -0.09379,0.07975 -0.14004,0.12451c-0.00754,0.00721 -0.01507,0.01451 -0.02256,0.02132c-0.02133,0.02089 -0.04257,0.04239 -0.06356,0.06487c-0.00633,0.00662 -0.01265,0.01328 -0.01916,0.01964c-0.01664,0.01768 -0.0332,0.03572 -0.04948,0.05447c-0.01278,0.01425 -0.02552,0.0287 -0.03851,0.04307c-1.23875,1.42891 -2.12182,4.80793 -2.12182,6.09954c0,1.45805 1.12534,2.67323 2.61733,2.94457l0.13663,0.02204l-0.03914,-0.00672l0.0641,0.01015l0.06297,0.0078l0.0003,2.55451c0.00009,0.25964 0.18189,0.47005 0.40623,0.46995c0.20546,0 0.37526,-0.17684 0.40212,-0.40626l0.0037,-0.06378l0.00053,-2.55441c0.10869,-0.01255 0.21573,-0.03006 0.32081,-0.05226l0.15614,-0.03682l0.11954,-0.03345c1.30307,-0.39048 2.24519,-1.52124 2.24519,-2.85532c0,-1.6575 -1.45427,-6.75262 -3.24823,-6.75262l-0.00001,-0.00001l-0.00001,-0.00002l0,-0.00001z" id="svg_51" stroke="null"/>
    </g>
    <path d="m46.17935,80.4514l0,-24.97155c0,-2.0949 1.87253,-3.79315 4.1824,-3.79315l56.11397,0c2.30988,0 4.18241,1.69824 4.18241,3.79315l0,24.97155c0,2.09489 -1.87253,3.79315 -4.18241,3.79315l-56.11397,0c-2.30988,0 -4.1824,-1.69825 -4.1824,-3.79315z" id="svg_41" fill="url(#svg_140)" stroke="null"/>
    <use id="Rectangle" fill="#e5e5e5" xlink:href="#svg_43" href="#svg_43" y="269.93755" x="363.83196" transform="matrix(0 -0.553168 0.609934 0 -118.465 285.134)" stroke="null"/>
    <line x1="49.51842" y1="63.90233" x2="49.51842" y2="72.33875" id="svg_36" stroke-width="0.75" stroke-linecap="round" stroke-linejoin="round" stroke="#FFFFFF"/>
    <g id="svg_13" fill="#eee" fill-rule="nonzero" stroke="null">
     <circle id="svg_16" cx="36.63865" cy="80.25361" r="4.64846" fill="none" stroke="null"/>
    </g>
    <use transform="matrix(0.609934 0 0 0.553168 -87.6561 120.162)" id="椭圆形" fill="url(#svg_68)" fill-rule="nonzero" xlink:href="#svg_29" href="#svg_29" y="-91.69185" x="305.43567" stroke="null"/>
    <circle id="椭圆形" fill="#ccc" fill-rule="nonzero" mask="url(#svg_18)" cx="114.56888" cy="84.81274" r="0.54232" stroke="null"/>
    <circle id="椭圆形" fill="#ccc" fill-rule="nonzero" mask="url(#svg_18)" cx="118.80357" cy="85.23947" r="0.54232" stroke="null"/>
    <circle id="椭圆形" fill="#ccc" fill-rule="nonzero" mask="url(#svg_18)" cx="111.74576" cy="86.80414" r="0.69727" stroke="null"/>
    <circle id="椭圆形" fill="#ccc" fill-rule="nonzero" mask="url(#svg_18)" cx="118.33305" cy="83.10582" r="0.69727" stroke="null"/>
    <circle id="椭圆形" fill="#ccc" fill-rule="nonzero" mask="url(#svg_18)" cx="112.05944" cy="73.14881" r="0.69727" stroke="null"/>
    <circle id="椭圆形" fill="#ccc" fill-rule="nonzero" mask="url(#svg_18)" cx="116.45097" cy="72.01086" r="0.69727" stroke="null"/>
    <circle id="椭圆形" fill="#ccc" fill-rule="nonzero" mask="url(#svg_18)" cx="107.04055" cy="72.57984" r="0.54232" stroke="null"/>
    <circle id="椭圆形" fill="#ccc" fill-rule="nonzero" mask="url(#svg_18)" cx="118.64673" cy="77.4161" r="0.69727" stroke="null"/>
    <circle id="椭圆形" fill="#ccc" fill-rule="nonzero" mask="url(#svg_18)" cx="114.2552" cy="76.84713" r="0.54232" stroke="null"/>
    <path d="m70.795,71.70785l4.02047,-5.18757l0,-0.04367l-3.65337,0l0,-1.41576l6.12201,0l0,0.98854l-3.92825,5.11898l0,0.0452l4.00128,0l0,1.41422l-6.56214,0l0,-0.91994zm7.43204,-3.25725l3.0184,-3.89812l0,-0.03117l-2.74354,0l0,-1.06029l4.59632,0l0,0.74063l-2.95753,3.84042l0,0.03272l3.00275,0l0,1.06184l-4.9164,0l0,-0.68605l0,0.00001l0,0.00001zm6.30993,0.38825l2.2616,-2.91736l0,-0.02495l-2.05629,0l0,-0.79519l3.44461,0l0,0.55509l-2.21291,2.87991l0,0.02495l2.24772,0l0,0.79521l-3.68472,0l0,-0.51767l-0.00001,0.00001l0,-0.00001l0,0.00001z" id="svg_10" fill="#FFFFFF" fill-rule="nonzero" stroke="null"/>
    <use transform="matrix(0.295389 0 0 0.193253 23.1906 154.132)" id="svg_2" fill="url(#svg_68)" fill-rule="nonzero" xlink:href="#svg_29" href="#svg_29" y="-387.76085" x="22.84476" stroke="null"/>
   </g>
   <path d="m3711.10606,1769.62851c0.34638,0 0.62718,0.29175 0.62718,0.65163c0,0.35989 -0.2808,0.65163 -0.62718,0.65163c-0.34638,0 -0.62718,-0.29174 -0.62718,-0.65163c0,-0.35988 0.2808,-0.65163 0.62718,-0.65163zm-2.85714,0c0.34638,0 0.62717,0.29175 0.62717,0.65163c0,0.35989 -0.28079,0.65163 -0.62717,0.65163c-0.34639,0 -0.62718,-0.29174 -0.62718,-0.65163c0,-0.35988 0.28079,-0.65163 0.62718,-0.65163zm2.16027,-2.30576c0.34638,0 0.62718,0.29174 0.62718,0.65163c0,0.35988 -0.2808,0.65163 -0.62718,0.65163c-0.34638,0 -0.62717,-0.29175 -0.62717,-0.65163c0,-0.35989 0.28079,-0.65163 0.62717,-0.65163zm-2.98257,-0.0401c0.34638,0 0.62717,0.29174 0.62717,0.65163c0,0.35988 -0.28079,0.65163 -0.62717,0.65163c-0.34638,0 -0.62718,-0.29175 -0.62718,-0.65163c0,-0.35989 0.2808,-0.65163 0.62718,-0.65163zm5.26829,-0.53133c0.34638,0 0.62718,0.29174 0.62718,0.65163c0,0.35988 -0.2808,0.65163 -0.62718,0.65163c-0.34638,0 -0.62718,-0.29175 -0.62718,-0.65163c0,-0.35989 0.2808,-0.65163 0.62718,-0.65163zm2.85714,-1.14286c0.34638,0 0.62718,0.29175 0.62718,0.65163c0,0.35989 -0.2808,0.65163 -0.62718,0.65163c-0.34638,0 -0.62718,-0.29174 -0.62718,-0.65163c0,-0.35988 0.2808,-0.65163 0.62718,-0.65163zm-6.36859,-0.91692c0.20783,0 0.37631,0.17505 0.37631,0.39098c0,0.21593 -0.16848,0.39098 -0.37631,0.39098c-0.20783,0 -0.37631,-0.17505 -0.37631,-0.39098c0,-0.21593 0.16848,-0.39098 0.37631,-0.39098zm3.51145,-0.79736l0.09268,0.00706c0.30243,0.04654 0.5345,0.3174 0.5345,0.64457c0,0.35988 -0.2808,0.65162 -0.62718,0.65162c-0.34638,0 -0.62718,-0.29174 -0.62718,-0.65162c0,-0.35989 0.2808,-0.65163 0.62718,-0.65163l0,0zm5.71428,0c0.34638,0 0.62718,0.29174 0.62718,0.65163c0,0.35988 -0.2808,0.65162 -0.62718,0.65162c-0.34638,0 -0.62717,-0.29174 -0.62717,-0.65162c0,-0.35989 0.28079,-0.65163 0.62717,-0.65163zm-11.42857,0c0.34638,0 0.62718,0.29174 0.62718,0.65163c0,0.35988 -0.2808,0.65162 -0.62718,0.65162c-0.34638,0 -0.62717,-0.29174 -0.62717,-0.65162c0,-0.35989 0.28079,-0.65163 0.62717,-0.65163zm-3.26132,0.2406c0.20783,0 0.37631,0.17504 0.37631,0.39098c0,0.21593 -0.16848,0.39097 -0.37631,0.39097c-0.20783,0 -0.37631,-0.17504 -0.37631,-0.39097c0,-0.21594 0.16848,-0.39098 0.37631,-0.39098zm11.83275,-0.81203c0.34638,0 0.62718,0.29174 0.62718,0.65163c0,0.35988 -0.2808,0.65163 -0.62718,0.65163c-0.34638,0 -0.62718,-0.29175 -0.62718,-0.65163c0,-0.35989 0.2808,-0.65163 0.62718,-0.65163zm-4.85075,0.399c0.20783,0 0.37631,0.17505 0.37631,0.39098c0,0.21593 -0.16848,0.39098 -0.37631,0.39098c-0.20783,0 -0.37631,-0.17505 -0.37631,-0.39098c0,-0.21593 0.16848,-0.39098 0.37631,-0.39098zm10.31368,-2.05599c0.34638,0 0.62718,0.29174 0.62718,0.65163c0,0.35988 -0.2808,0.65163 -0.62718,0.65163c-0.34638,0 -0.62718,-0.29175 -0.62718,-0.65163c0,-0.35989 0.2808,-0.65163 0.62718,-0.65163zm-2.35491,-0.12747c0.34638,0 0.62717,0.29174 0.62717,0.65163c0,0.35988 -0.28079,0.65163 -0.62717,0.65163c-0.34639,0 -0.62718,-0.29175 -0.62718,-0.65163c0,-0.35989 0.28079,-0.65163 0.62718,-0.65163zm-13.79791,0.31077c0.20782,0 0.3763,0.17505 0.3763,0.39098c0,0.21593 -0.16848,0.39098 -0.3763,0.39098c-0.20783,0 -0.37631,-0.17505 -0.37631,-0.39098c0,-0.21593 0.16848,-0.39098 0.37631,-0.39098zm11.83275,-0.81203c0.34638,0 0.62718,0.29175 0.62718,0.65163c0,0.35989 -0.2808,0.65163 -0.62718,0.65163c-0.34638,0 -0.62718,-0.29174 -0.62718,-0.65163c0,-0.35988 0.2808,-0.65163 0.62718,-0.65163zm-6.28572,0c0.34638,0 0.62718,0.29175 0.62718,0.65163c0,0.35989 -0.2808,0.65163 -0.62718,0.65163c-0.34638,0 -0.62717,-0.29174 -0.62717,-0.65163c0,-0.35988 0.28079,-0.65163 0.62717,-0.65163zm3.42858,0c0.34638,0 0.62717,0.29175 0.62717,0.65163c0,0.35989 -0.28079,0.65163 -0.62717,0.65163c-0.34639,0 -0.62718,-0.29174 -0.62718,-0.65163c0,-0.35988 0.28079,-0.65163 0.62718,-0.65163zm-6.11847,0.24061c0.20783,0 0.37631,0.17504 0.37631,0.39097c0,0.21593 -0.16848,0.39098 -0.37631,0.39098c-0.20783,0 -0.37631,-0.17505 -0.37631,-0.39098c0,-0.21593 0.16848,-0.39097 0.37631,-0.39097zm11.26132,-2.52632c0.34638,0 0.62718,0.29174 0.62718,0.65163c0,0.35988 -0.2808,0.65163 -0.62718,0.65163c-0.34638,0 -0.62717,-0.29175 -0.62717,-0.65163c0,-0.35989 0.28079,-0.65163 0.62717,-0.65163zm-3.55705,0.48453c0.20783,0 0.37631,0.17505 0.37631,0.39098c0,0.21593 -0.16848,0.39097 -0.37631,0.39097c-0.20783,0 -0.37631,-0.17504 -0.37631,-0.39097c0,-0.21593 0.16848,-0.39098 0.37631,-0.39098zm-2.47779,-0.55471c0.34638,0 0.62718,0.29175 0.62718,0.65163c0,0.35989 -0.2808,0.65163 -0.62718,0.65163c-0.34638,0 -0.62718,-0.29174 -0.62718,-0.65163c0,-0.35988 0.2808,-0.65163 0.62718,-0.65163zm-3.5122,-0.26065c0.20783,0 0.37631,0.17505 0.37631,0.39098c0,0.21593 -0.16848,0.39098 -0.37631,0.39098c-0.20782,0 -0.3763,-0.17505 -0.3763,-0.39098c0,-0.21593 0.16848,-0.39098 0.3763,-0.39098zm-2.85714,0c0.20783,0 0.37631,0.17505 0.37631,0.39098c0,0.21593 -0.16848,0.39098 -0.37631,0.39098c-0.20783,0 -0.37631,-0.17505 -0.37631,-0.39098c0,-0.21593 0.16848,-0.39098 0.37631,-0.39098zm-4.57143,0c0.20783,0 0.37631,0.17505 0.37631,0.39098c0,0.21593 -0.16848,0.39098 -0.37631,0.39098c-0.20783,0 -0.3763,-0.17505 -0.3763,-0.39098c0,-0.21593 0.16847,-0.39098 0.3763,-0.39098zm14.89896,-1.83458c0.34638,0 0.62718,0.29174 0.62718,0.65162c0,0.35989 -0.2808,0.65163 -0.62718,0.65163c-0.34638,0 -0.62718,-0.29174 -0.62718,-0.65163c0,-0.35988 0.2808,-0.65162 0.62718,-0.65162zm-8.02713,-0.24524c0.20783,0 0.37631,0.17504 0.37631,0.39098c0,0.21593 -0.16848,0.39097 -0.37631,0.39097c-0.20783,0 -0.37631,-0.17504 -0.37631,-0.39097c0,-0.21594 0.16848,-0.39098 0.37631,-0.39098zm6.27103,-1.34875c0.20783,0 0.37631,0.17505 0.37631,0.39098c0,0.21593 -0.16848,0.39098 -0.37631,0.39098c-0.20783,0 -0.37631,-0.17505 -0.37631,-0.39098c0,-0.21593 0.16848,-0.39098 0.37631,-0.39098zm-11.48432,-0.4812c0.20783,0 0.37631,0.17504 0.37631,0.39098c0,0.21593 -0.16848,0.39097 -0.37631,0.39097c-0.20783,0 -0.37631,-0.17504 -0.37631,-0.39097c0,-0.21594 0.16848,-0.39098 0.37631,-0.39098zm15.10298,-0.9716c0.20783,0 0.37631,0.17505 0.37631,0.39098c0,0.21593 -0.16848,0.39098 -0.37631,0.39098c-0.20783,0 -0.37631,-0.17505 -0.37631,-0.39098c0,-0.21593 0.16848,-0.39098 0.37631,-0.39098zm-9.33295,-1.40434c0.20783,0 0.37631,0.17504 0.37631,0.39098c0,0.21593 -0.16848,0.39097 -0.37631,0.39097c-0.20782,0 -0.3763,-0.17504 -0.3763,-0.39097c0,-0.21594 0.16848,-0.39098 0.3763,-0.39098zm-6.8188,-0.40536c0.20783,0 0.37631,0.17504 0.37631,0.39098c0,0.21593 -0.16848,0.39097 -0.37631,0.39097c-0.20783,0 -0.37631,-0.17504 -0.37631,-0.39097c0,-0.21594 0.16848,-0.39098 0.37631,-0.39098z" id="svg_94" fill="#003CFF" fill-rule="nonzero" mask="url(#svg_97)" transform="rotate(116 -3.68154e+10 -2.06683e+11) matrix(-0.0324899 -0.104601 0.053833 0.0324899 3240.34 4961.94)" stroke="null"/>
   <path d="m3591.93223,1393.19235l3.91269,4.99541m11.9111,-4.99541l-3.91269,4.99541m9.14445,1.14286l-6.28731,1.14286m-6.76824,-10.7097l0,7.26112" id="Combined-Shape" stroke-width="0.75" stroke-linecap="round" stroke-linejoin="round" transform="rotate(-270 -3.96068e+8 -1.76030e+8) matrix(0 -0.120447 0.0379866 0 1696.99 4771.61)" stroke="#4486FE"/>
   <path d="m1119.31406,853.03052c0.34638,0 0.62718,0.29175 0.62718,0.65163c0,0.35989 -0.2808,0.65163 -0.62718,0.65163c-0.34638,0 -0.62718,-0.29174 -0.62718,-0.65163c0,-0.35988 0.2808,-0.65163 0.62718,-0.65163zm-2.85714,0c0.34638,0 0.62717,0.29175 0.62717,0.65163c0,0.35989 -0.28079,0.65163 -0.62717,0.65163c-0.34639,0 -0.62718,-0.29174 -0.62718,-0.65163c0,-0.35988 0.28079,-0.65163 0.62718,-0.65163zm2.16027,-2.30576c0.34638,0 0.62718,0.29174 0.62718,0.65163c0,0.35988 -0.2808,0.65163 -0.62718,0.65163c-0.34638,0 -0.62717,-0.29175 -0.62717,-0.65163c0,-0.35989 0.28079,-0.65163 0.62717,-0.65163zm-2.98257,-0.0401c0.34638,0 0.62717,0.29174 0.62717,0.65163c0,0.35988 -0.28079,0.65163 -0.62717,0.65163c-0.34638,0 -0.62718,-0.29175 -0.62718,-0.65163c0,-0.35989 0.2808,-0.65163 0.62718,-0.65163zm5.26829,-0.53133c0.34638,0 0.62718,0.29174 0.62718,0.65163c0,0.35988 -0.2808,0.65163 -0.62718,0.65163c-0.34638,0 -0.62718,-0.29175 -0.62718,-0.65163c0,-0.35989 0.2808,-0.65163 0.62718,-0.65163zm2.85714,-1.14286c0.34638,0 0.62718,0.29175 0.62718,0.65163c0,0.35989 -0.2808,0.65163 -0.62718,0.65163c-0.34638,0 -0.62718,-0.29174 -0.62718,-0.65163c0,-0.35988 0.2808,-0.65163 0.62718,-0.65163zm-6.36859,-0.91692c0.20783,0 0.37631,0.17505 0.37631,0.39098c0,0.21593 -0.16848,0.39098 -0.37631,0.39098c-0.20783,0 -0.37631,-0.17505 -0.37631,-0.39098c0,-0.21593 0.16848,-0.39098 0.37631,-0.39098zm3.51145,-0.79736l0.09268,0.00706c0.30243,0.04654 0.5345,0.3174 0.5345,0.64457c0,0.35988 -0.2808,0.65162 -0.62718,0.65162c-0.34638,0 -0.62718,-0.29174 -0.62718,-0.65162c0,-0.35989 0.2808,-0.65163 0.62718,-0.65163l0,0zm5.71428,0c0.34638,0 0.62718,0.29174 0.62718,0.65163c0,0.35988 -0.2808,0.65162 -0.62718,0.65162c-0.34638,0 -0.62717,-0.29174 -0.62717,-0.65162c0,-0.35989 0.28079,-0.65163 0.62717,-0.65163zm-11.42857,0c0.34638,0 0.62718,0.29174 0.62718,0.65163c0,0.35988 -0.2808,0.65162 -0.62718,0.65162c-0.34638,0 -0.62717,-0.29174 -0.62717,-0.65162c0,-0.35989 0.28079,-0.65163 0.62717,-0.65163zm-3.26132,0.2406c0.20783,0 0.37631,0.17504 0.37631,0.39098c0,0.21593 -0.16848,0.39097 -0.37631,0.39097c-0.20783,0 -0.37631,-0.17504 -0.37631,-0.39097c0,-0.21594 0.16848,-0.39098 0.37631,-0.39098zm11.83275,-0.81203c0.34638,0 0.62718,0.29174 0.62718,0.65163c0,0.35988 -0.2808,0.65163 -0.62718,0.65163c-0.34638,0 -0.62718,-0.29175 -0.62718,-0.65163c0,-0.35989 0.2808,-0.65163 0.62718,-0.65163zm-4.85075,0.399c0.20783,0 0.37631,0.17505 0.37631,0.39098c0,0.21593 -0.16848,0.39098 -0.37631,0.39098c-0.20783,0 -0.37631,-0.17505 -0.37631,-0.39098c0,-0.21593 0.16848,-0.39098 0.37631,-0.39098zm10.31368,-2.05599c0.34638,0 0.62718,0.29174 0.62718,0.65163c0,0.35988 -0.2808,0.65163 -0.62718,0.65163c-0.34638,0 -0.62718,-0.29175 -0.62718,-0.65163c0,-0.35989 0.2808,-0.65163 0.62718,-0.65163zm-2.35491,-0.12747c0.34638,0 0.62717,0.29174 0.62717,0.65163c0,0.35988 -0.28079,0.65163 -0.62717,0.65163c-0.34639,0 -0.62718,-0.29175 -0.62718,-0.65163c0,-0.35989 0.28079,-0.65163 0.62718,-0.65163zm-13.79791,0.31077c0.20782,0 0.3763,0.17505 0.3763,0.39098c0,0.21593 -0.16848,0.39098 -0.3763,0.39098c-0.20783,0 -0.37631,-0.17505 -0.37631,-0.39098c0,-0.21593 0.16848,-0.39098 0.37631,-0.39098zm11.83275,-0.81203c0.34638,0 0.62718,0.29175 0.62718,0.65163c0,0.35989 -0.2808,0.65163 -0.62718,0.65163c-0.34638,0 -0.62718,-0.29174 -0.62718,-0.65163c0,-0.35988 0.2808,-0.65163 0.62718,-0.65163zm-6.28572,0c0.34638,0 0.62718,0.29175 0.62718,0.65163c0,0.35989 -0.2808,0.65163 -0.62718,0.65163c-0.34638,0 -0.62717,-0.29174 -0.62717,-0.65163c0,-0.35988 0.28079,-0.65163 0.62717,-0.65163zm3.42858,0c0.34638,0 0.62717,0.29175 0.62717,0.65163c0,0.35989 -0.28079,0.65163 -0.62717,0.65163c-0.34639,0 -0.62718,-0.29174 -0.62718,-0.65163c0,-0.35988 0.28079,-0.65163 0.62718,-0.65163zm-6.11847,0.24061c0.20783,0 0.37631,0.17504 0.37631,0.39097c0,0.21593 -0.16848,0.39098 -0.37631,0.39098c-0.20783,0 -0.37631,-0.17505 -0.37631,-0.39098c0,-0.21593 0.16848,-0.39097 0.37631,-0.39097zm11.26132,-2.52632c0.34638,0 0.62718,0.29174 0.62718,0.65163c0,0.35988 -0.2808,0.65163 -0.62718,0.65163c-0.34638,0 -0.62717,-0.29175 -0.62717,-0.65163c0,-0.35989 0.28079,-0.65163 0.62717,-0.65163zm-3.55705,0.48453c0.20783,0 0.37631,0.17505 0.37631,0.39098c0,0.21593 -0.16848,0.39097 -0.37631,0.39097c-0.20783,0 -0.37631,-0.17504 -0.37631,-0.39097c0,-0.21593 0.16848,-0.39098 0.37631,-0.39098zm-2.47779,-0.55471c0.34638,0 0.62718,0.29175 0.62718,0.65163c0,0.35989 -0.2808,0.65163 -0.62718,0.65163c-0.34638,0 -0.62718,-0.29174 -0.62718,-0.65163c0,-0.35988 0.2808,-0.65163 0.62718,-0.65163zm-3.5122,-0.26065c0.20783,0 0.37631,0.17505 0.37631,0.39098c0,0.21593 -0.16848,0.39098 -0.37631,0.39098c-0.20782,0 -0.3763,-0.17505 -0.3763,-0.39098c0,-0.21593 0.16848,-0.39098 0.3763,-0.39098zm-2.85714,0c0.20783,0 0.37631,0.17505 0.37631,0.39098c0,0.21593 -0.16848,0.39098 -0.37631,0.39098c-0.20783,0 -0.37631,-0.17505 -0.37631,-0.39098c0,-0.21593 0.16848,-0.39098 0.37631,-0.39098zm-4.57143,0c0.20783,0 0.37631,0.17505 0.37631,0.39098c0,0.21593 -0.16848,0.39098 -0.37631,0.39098c-0.20783,0 -0.3763,-0.17505 -0.3763,-0.39098c0,-0.21593 0.16847,-0.39098 0.3763,-0.39098zm14.89896,-1.83458c0.34638,0 0.62718,0.29174 0.62718,0.65162c0,0.35989 -0.2808,0.65163 -0.62718,0.65163c-0.34638,0 -0.62718,-0.29174 -0.62718,-0.65163c0,-0.35988 0.2808,-0.65162 0.62718,-0.65162zm-8.02713,-0.24524c0.20783,0 0.37631,0.17504 0.37631,0.39098c0,0.21593 -0.16848,0.39097 -0.37631,0.39097c-0.20783,0 -0.37631,-0.17504 -0.37631,-0.39097c0,-0.21594 0.16848,-0.39098 0.37631,-0.39098zm6.27103,-1.34875c0.20783,0 0.37631,0.17505 0.37631,0.39098c0,0.21593 -0.16848,0.39098 -0.37631,0.39098c-0.20783,0 -0.37631,-0.17505 -0.37631,-0.39098c0,-0.21593 0.16848,-0.39098 0.37631,-0.39098zm-11.48432,-0.4812c0.20783,0 0.37631,0.17504 0.37631,0.39098c0,0.21593 -0.16848,0.39097 -0.37631,0.39097c-0.20783,0 -0.37631,-0.17504 -0.37631,-0.39097c0,-0.21594 0.16848,-0.39098 0.37631,-0.39098zm15.10298,-0.9716c0.20783,0 0.37631,0.17505 0.37631,0.39098c0,0.21593 -0.16848,0.39098 -0.37631,0.39098c-0.20783,0 -0.37631,-0.17505 -0.37631,-0.39098c0,-0.21593 0.16848,-0.39098 0.37631,-0.39098zm-9.33295,-1.40434c0.20783,0 0.37631,0.17504 0.37631,0.39098c0,0.21593 -0.16848,0.39097 -0.37631,0.39097c-0.20782,0 -0.3763,-0.17504 -0.3763,-0.39097c0,-0.21594 0.16848,-0.39098 0.3763,-0.39098zm-6.8188,-0.40536c0.20783,0 0.37631,0.17504 0.37631,0.39098c0,0.21593 -0.16848,0.39097 -0.37631,0.39097c-0.20783,0 -0.37631,-0.17504 -0.37631,-0.39097c0,-0.21594 0.16848,-0.39098 0.37631,-0.39098z" id="svg_113" fill="#003CFF" fill-rule="nonzero" mask="url(#svg_115)" transform="rotate(116 1.83516e+10 -2.98005e+10) matrix(-0.107266 -0.287505 0.119895 0.107266 735.714 1658.52)" stroke="null"/>
   <path d="m1055.80457,609.07765l3.91269,4.99541m11.9111,-4.99541l-3.91269,4.99541m9.14445,1.14286l-6.28731,1.14286m-6.76824,-10.7097l0,7.26112" id="Combined-Shape" stroke-width="0.75" stroke-linecap="round" stroke-linejoin="round" transform="rotate(-270 -1.52162e+7 -8.30814e+7) matrix(0 -0.339822 0.0675777 0 282.266 1609.85)" stroke="#4486FE"/>
   <g id="svg_125" transform="rotate(3.61634 109.104 48.8451)">
    <line fill="none" x1="110.1586" y1="50.48303" x2="108.68082" y2="46.78353" id="svg_122" stroke="#ededed" transform="rotate(40.6888 109.42 48.6331)"/>
    <line fill="none" x1="106.07701" y1="50.03241" x2="104.17827" y2="46.99958" id="svg_123" stroke="#efeded"/>
    <line fill="none" stroke="#ededed" x1="111.74555" y1="50.94122" x2="114.02981" y2="49.41838" id="svg_124"/>
   </g>
  </g>
 </g>
</svg>